#!OML:ASF H:\Terrain\Patient Classification 1\Takeo\Monday\TakeoMonday.ASF
:FULLY-SPECIFIED
:DEGREES
140
root 8.48705 11.2992 -1.2947 30.6559 13.4417 2.27946
lowerback 36.0712 1.43695 11.8312
upperback 26.3244 4.78172 8.48203
thorax 11.9326 3.1929 2.18332
lowerneck -19.6658 -12.6925 -9.50508
upperneck -23.166 -15.0055 8.75704
head -2.8117 -7.31655 3.63666
rclavicle -8.26944e-014 1.59028e-015
rhumerus 75.1512 -28.8884 -45.6575
rradius 19.4041
rwrist 2.3286
rhand -39.4407 34.6261
rfingers 7.12502
rthumb -12.4286 5.01564
lclavicle -8.26944e-014 1.59028e-015
lhumerus -1.54423 -8.29472 97.6914
lradius 66.8763
lwrist 37.848
lhand -28.5955 9.95868
lfingers 7.12502
lthumb -1.96106 39.9294
rfemur -108.293 -10.3206 26.9336
rtibia 109.751
rfoot -28.5456 -4.53472
rtoes 0.9394
lfemur -96.1688 7.75104 -30.7912
ltibia 118.8
lfoot -36.3746 12.3796
ltoes -10.6503
141
root 8.48781 11.2628 -1.29801 30.4421 13.3019 2.27472
lowerback 36.3595 1.36368 11.6838
upperback 26.2798 4.70737 8.34264
thorax 11.7653 3.14698 2.10413
lowerneck -19.6275 -12.7679 -10.0606
upperneck -23.1888 -14.9368 9.28721
head -2.73959 -7.2503 3.87945
rclavicle -4.77083e-014 3.97569e-015
rhumerus 75.1978 -28.5711 -45.7729
rradius 19.4411
rwrist 2.21651
rhand -39.5133 35.1824
rfingers 7.12502
rthumb -12.4985 5.5762
lclavicle -4.77083e-014 3.97569e-015
lhumerus -1.59389 -8.00849 97.6199
lradius 66.9882
lwrist 37.6465
lhand -28.782 10.0598
lfingers 7.12502
lthumb -2.14118 40.0288
rfemur -108.298 -10.1923 26.7913
rtibia 110.107
rfoot -28.8638 -4.37403
rtoes 0.653489
lfemur -96.1361 7.91646 -30.9131
ltibia 119.233
lfoot -36.7018 12.2149
ltoes -10.0706
142
root 8.48526 11.2302 -1.301 30.3059 13.1726 2.29888
lowerback 36.5908 1.32454 11.3582
upperback 26.1877 4.62629 8.25081
thorax 11.5281 3.06555 2.16087
lowerneck -19.9935 -12.9199 -10.608
upperneck -22.7508 -14.9485 9.69406
head -2.48137 -7.21962 4.03355
rclavicle 8.90555e-014 1.51076e-014
rhumerus 75.4415 -28.1366 -46.0816
rradius 19.4243
rwrist 2.20341
rhand -39.3955 35.7352
rfingers 7.12502
rthumb -12.385 6.12203
lclavicle 8.90555e-014 1.51076e-014
lhumerus -1.65137 -7.5239 97.5766
lradius 67.0326
lwrist 37.6925
lhand -29.0065 10.4983
lfingers 7.12502
lthumb -2.35802 40.4651
rfemur -108.34 -10.07 26.6444
rtibia 110.442
rfoot -29.16 -4.26542
rtoes 0.680819
lfemur -96.1627 8.02514 -31.0273
ltibia 119.599
lfoot -36.9984 12.1681
ltoes -9.42946
143
root 8.48997 11.201 -1.30124 29.9352 13.1044 2.07086
lowerback 36.9549 1.17175 11.295
upperback 26.1156 4.48882 8.11319
thorax 11.3149 2.99425 2.05382
lowerneck -20.5716 -12.8562 -10.5049
upperneck -22.3966 -14.8182 9.60006
head -2.32676 -7.14746 3.95425
rclavicle 1.90833e-014 4.21423e-014
rhumerus 75.4791 -27.5266 -46.0156
rradius 19.4527
rwrist 1.54452
rhand -39.1353 36.126
rfingers 7.12502
rthumb -12.1341 6.49786
lclavicle 1.90833e-014 4.21423e-014
lhumerus -1.72755 -6.87431 97.5323
lradius 67.0524
lwrist 37.6932
lhand -29.329 10.4427
lfingers 7.12502
lthumb -2.66941 40.4057
rfemur -108.082 -9.91885 26.7082
rtibia 110.718
rfoot -29.3936 -4.12374
rtoes 0.990055
lfemur -95.9954 8.36439 -30.9209
ltibia 119.932
lfoot -37.2212 12.1708
ltoes -9.14381
144
root 8.49403 11.1834 -1.30684 29.768 13.0088 2.0222
lowerback 37.1134 1.03508 11.15
upperback 26.0503 4.32144 7.93719
thorax 11.1708 2.90691 1.95932
lowerneck -20.049 -12.5551 -10.2925
upperneck -22.9379 -14.5267 9.39934
head -2.61323 -7.01013 3.94321
rclavicle -3.18055e-014 -1.35174e-014
rhumerus 75.6794 -27.0016 -46.239
rradius 19.5327
rwrist 1.1838
rhand -39.2602 36.2655
rfingers 7.12502
rthumb -12.2546 6.64452
lclavicle -3.18055e-014 -1.35174e-014
lhumerus -1.76758 -6.26939 97.4926
lradius 67.1901
lwrist 37.5974
lhand -29.4192 10.346
lfingers 7.12502
lthumb -2.75655 40.3079
rfemur -108.052 -9.77778 26.5808
rtibia 110.922
rfoot -29.4533 -4.2429
rtoes 0.517127
lfemur -95.8872 8.50606 -30.967
ltibia 120.082
lfoot -37.2986 12.2766
ltoes -9.20179
145
root 8.50115 11.1748 -1.31592 29.7098 13.0454 1.99204
lowerback 37.2062 0.793375 11.0772
upperback 25.9947 4.04093 7.85387
thorax 11.0598 2.76208 1.9595
lowerneck -20.7618 -12.711 -11.0367
upperneck -22.4082 -14.4518 9.84737
head -2.27938 -6.91202 4.12665
rclavicle -1.145e-013 -9.54166e-015
rhumerus 75.9577 -26.4661 -46.1633
rradius 19.7571
rwrist 0.696411
rhand -39.7644 36.595
rfingers 7.12502
rthumb -12.7407 7.00369
lclavicle -1.145e-013 -9.54166e-015
lhumerus -1.65097 -5.49353 97.6405
lradius 67.3103
lwrist 37.4864
lhand -29.1963 9.9271
lfingers 7.12502
lthumb -2.54133 39.8917
rfemur -108.085 -9.74769 26.5135
rtibia 110.993
rfoot -29.4206 -4.33941
rtoes 0.875801
lfemur -95.8655 8.41662 -30.9499
ltibia 120.108
lfoot -37.2064 12.5363
ltoes -9.60273
146
root 8.5121 11.1666 -1.32438 29.6457 13.1493 1.86002
lowerback 37.5365 0.609117 11.5063
upperback 25.4789 4.03152 7.44224
thorax 10.4068 2.8355 1.25591
lowerneck -20.926 -12.5245 -10.0405
upperneck -21.6737 -14.4064 9.55196
head -2.11616 -6.95884 3.85304
rclavicle 4.13472e-014 3.57812e-014
rhumerus 75.1975 -26.154 -46.5583
rradius 19.8198
rwrist 0.394562
rhand -39.7106 37.4615
rfingers 7.12502
rthumb -12.6888 7.86701
lclavicle 4.13472e-014 3.57812e-014
lhumerus -2.26787 -5.68132 96.9981
lradius 67.4221
lwrist 37.6604
lhand -29.0642 9.54568
lfingers 7.12502
lthumb -2.41371 39.5118
rfemur -108.083 -9.78044 26.6255
rtibia 110.877
rfoot -29.2208 -4.3603
rtoes 1.58258
lfemur -95.9661 8.3353 -30.8269
ltibia 120.144
lfoot -37.0283 12.7848
ltoes -10.0026
147
root 8.5161 11.167 -1.33285 29.646 13.1672 1.75084
lowerback 37.7924 0.63308 11.9022
upperback 24.8215 4.25954 6.97835
thorax 9.625 3.01479 0.452461
lowerneck -19.9894 -12.0361 -8.14109
upperneck -21.6678 -14.2857 8.76448
head -2.41974 -7.03804 3.40049
rclavicle 8.90555e-014 4.69132e-014
rhumerus 74.3013 -26.0385 -47.8236
rradius 19.7412
rwrist 0.799573
rhand -39.3738 38.525
rfingers 7.12502
rthumb -12.3641 8.91062
lclavicle 8.90555e-014 4.69132e-014
lhumerus -3.13571 -6.40425 96.1347
lradius 67.4803
lwrist 37.9182
lhand -29.0619 9.80167
lfingers 7.12502
lthumb -2.4115 39.7678
rfemur -108.124 -9.76806 26.7572
rtibia 110.704
rfoot -28.94 -4.47955
rtoes 1.63393
lfemur -96.1137 8.32606 -30.7298
ltibia 120.155
lfoot -36.7977 12.9515
ltoes -10.2181
148
root 8.51597 11.1771 -1.34444 29.5037 13.0356 1.6997
lowerback 38.1531 0.567916 11.824
upperback 24.4751 4.24371 6.71517
thorax 9.10155 2.99866 0.176255
lowerneck -19.5619 -11.9997 -8.44441
upperneck -21.547 -14.1428 9.35057
head -2.36616 -6.95981 3.64112
rclavicle 3.81667e-014 -1.43125e-014
rhumerus 73.9366 -25.5315 -48.1975
rradius 19.946
rwrist 0.526604
rhand -39.5801 39.0257
rfingers 7.12502
rthumb -12.5629 9.42344
lclavicle 3.81667e-014 -1.43125e-014
lhumerus -3.509 -6.21322 95.808
lradius 67.5624
lwrist 37.9699
lhand -28.9734 9.54907
lfingers 7.12502
lthumb -2.32604 39.5161
rfemur -107.902 -9.65703 26.6939
rtibia 110.54
rfoot -28.7222 -4.4659
rtoes 1.95557
lfemur -95.9836 8.44121 -30.729
ltibia 120.087
lfoot -36.7515 12.9961
ltoes -10.1928
149
root 8.51618 11.1956 -1.3553 29.1761 12.766 1.78204
lowerback 38.5839 0.334502 11.0186
upperback 24.6591 3.79762 6.83738
thorax 9.05047 2.66337 0.810082
lowerneck -20.7062 -12.3216 -10.7101
upperneck -20.7673 -13.9255 10.3443
head -1.77306 -6.67307 4.19038
rclavicle 7.63333e-014 0
rhumerus 74.8653 -24.4142 -47.6865
rradius 20.326
rwrist -0.183102
rhand -40.1509 39.7678
rfingers 7.12502
rthumb -13.1133 10.2001
lclavicle 7.63333e-014 0
lhumerus -3.03313 -4.49274 96.4681
lradius 67.6963
lwrist 37.6913
lhand -28.8867 9.42855
lfingers 7.12502
lthumb -2.24226 39.3965
rfemur -107.431 -9.51302 26.3624
rtibia 110.468
rfoot -28.6586 -4.26499
rtoes 2.27484
lfemur -95.5246 8.59234 -30.8492
ltibia 119.92
lfoot -36.8838 12.9727
ltoes -9.96158
